<?xml version="1.0" encoding="UTF-8" standalone="no"?>
<!-- Created with Inkscape (http://www.inkscape.org/) -->

<svg
   version="1.1"
   id="svg1"
   width="1024"
   height="1024"
   viewBox="0 0 1024 1024"
   sodipodi:docname="SGF-Websmith__Logo.svg"
   inkscape:version="1.3.2 (091e20e, 2023-11-25, custom)"
   xmlns:inkscape="http://www.inkscape.org/namespaces/inkscape"
   xmlns:sodipodi="http://sodipodi.sourceforge.net/DTD/sodipodi-0.dtd"
   xmlns="http://www.w3.org/2000/svg"
   xmlns:svg="http://www.w3.org/2000/svg">
  <defs
     id="defs1" />
  <sodipodi:namedview
     id="namedview1"
     pagecolor="#505050"
     bordercolor="#eeeeee"
     borderopacity="1"
     inkscape:showpageshadow="0"
     inkscape:pageopacity="0"
     inkscape:pagecheckerboard="0"
     inkscape:deskcolor="#505050"
     inkscape:zoom="0.79785156"
     inkscape:cx="512"
     inkscape:cy="512"
     inkscape:window-width="1920"
     inkscape:window-height="1094"
     inkscape:window-x="-11"
     inkscape:window-y="-11"
     inkscape:window-maximized="1"
     inkscape:current-layer="g1" />
  <g
     inkscape:groupmode="layer"
     inkscape:label="Image"
     id="g1">
    <path
       style="fill:#fff"
       d="m 529.30722,881.46635 c -1.85464,-1.85464 -2,-3.33333 -2,-20.34501 0,-20.94157 0.25707,-21.65499 7.80306,-21.65499 6.65328,0 7.39635,2.43462 7.01185,22.97382 -0.27844,14.87384 -0.53554,17.06553 -2.2199,18.92413 -2.48648,2.7437 -7.90121,2.79585 -10.59501,0.10205 z m 263.11617,-117.75 c 0.0689,-42.4875 0.50774,-77.25 0.9752,-77.25 0.46747,0 17.88291,17.05353 38.70098,37.89674 l 37.85105,37.89674 -38.82625,39.35326 -38.82624,39.35326 z m -581.61617,55.80464 c -4.7678,-1.95142 -8.85781,-9.88972 -7.8533,-15.24245 2.23187,-11.89291 16.16097,-15.48996 24.26056,-6.26504 5.15135,5.86707 3.93641,14.04083 -2.94807,19.83373 -3.23138,2.71903 -9.11706,3.45096 -13.45919,1.67376 z m 491.0432,0.21765 c -4.24183,-0.63846 -10.94309,-5.79064 -12.91784,-9.93173 -2.90726,-6.09659 -3.10871,-11.34622 -0.65434,-17.05156 1.20484,-2.80072 3.17289,-6.01502 4.37345,-7.14288 8.93033,-8.38961 24.40612,-5.44977 30.32764,5.76116 4.05753,7.68194 2.69939,15.57269 -3.77434,21.92871 -5.51903,5.41869 -10.88748,7.40968 -17.35457,6.4363 z m -391.94458,-6.5675 c -2.14577,-3.41264 -7.42661,-11.71729 -11.73521,-18.45479 l -7.83381,-12.25 h 23.59219 c 21.7883,0 23.54234,0.12991 22.94021,1.69903 -0.90603,2.36108 -21.9467,35.18799 -22.562,35.20043 -0.275,0.006 -2.25562,-2.78204 -4.40138,-6.19467 z m 199.40138,5.24744 c -26.70739,-1.92881 -62.50745,-10.94603 -89.88669,-22.64041 -48.34178,-20.64803 -94.26791,-56.23036 -126.4053,-97.93543 -18.39135,-23.86667 -36.13429,-55.33189 -45.60542,-80.87639 -10.00388,-26.98135 -18.10259,-65.4869 -18.10259,-86.06926 0,-3.37094 -0.29103,-9.57188 -0.64674,-13.77986 l -0.64673,-7.65088 h -28.89872 -28.89872 l -2.45454,-2.45455 c -3.12828,-3.12827 -3.12828,-6.96263 0,-10.0909 2.3462,-2.34621 3.0193,-2.456 15.25,-2.48732 15.57867,-0.0399 44.6459,-1.03879 45.19167,-1.55301 0.21792,-0.20533 0.787,-4.99502 1.26463,-10.64377 1.65203,-19.53801 5.62708,-37.0514 8.79438,-38.74649 3.15905,-1.69067 6.59707,-1.16821 9.39875,1.42829 3.03472,2.81249 3.20531,4.56952 1.20424,12.40341 -3.74016,14.64215 -4.91106,27.34132 -4.90004,53.14434 0.0151,35.39171 2.12478,49.5004 12.78476,85.5 13.3998,45.25222 45.67234,95.15942 83.35327,128.89993 44.334,39.69786 94.28252,65.23113 144.70379,73.97138 11.40926,1.97773 34.60185,4.62589 40.52749,4.62748 7.45488,0.002 11.73283,4.5217 9.72673,10.27641 -1.94809,5.58828 -5.13152,6.1664 -25.75422,4.67703 z m -284.92167,-45.37385 -24.32933,-24.34454 22.73233,-23.08344 c 12.50278,-12.69589 23.64362,-23.37267 24.75742,-23.72618 1.65357,-0.52482 5.8658,3.18414 22.95972,20.21652 24.59357,24.50503 25.47339,25.56196 23.55665,28.29849 -0.75327,1.07545 -11.26461,12.08673 -23.35852,24.46953 l -21.98894,22.51416 z m 32.44513,-0.69414 c 4.76747,-4.85068 7.47365,-8.30388 6.72654,-8.58334 -1.76091,-0.65867 -1.56079,-3.3009 0.25,-3.3009 0.825,0 1.5,0.77624 1.5,1.72497 0,1.12494 2.59999,-0.85767 7.4744,-5.69954 6.91431,-6.86817 7.35688,-7.55438 5.90605,-9.15754 -0.8626,-0.95315 -2.20108,-1.49021 -2.97441,-1.19346 -0.91212,0.35001 -1.40604,-0.14616 -1.40604,-1.41245 0,-2.43647 -3.59404,-5.97987 -4.20531,-4.14606 -0.24191,0.72574 -0.94169,0.91126 -1.69084,0.44826 -0.9104,-0.56266 -0.96927,-1.09876 -0.20464,-1.86339 1.6287,-1.6287 -1.49764,-4.61856 -4.11396,-3.93438 -1.74455,0.45621 -2.00787,0.19289 -1.55166,-1.55166 0.61995,-2.3707 -2.69708,-6.32428 -3.4389,-4.09883 -0.23833,0.71499 -0.94478,0.90936 -1.67188,0.45998 -0.69254,-0.42801 -0.99572,-1.46472 -0.67373,-2.3038 0.90692,-2.3634 -1.36172,-4.58949 -3.15797,-3.09873 -1.13458,0.94161 -1.62901,0.89792 -2.31012,-0.20413 -0.50007,-0.80914 -0.46933,-1.88082 0.0727,-2.53391 0.62014,-0.74722 0.25737,-1.74885 -1.06768,-2.94801 -1.94724,-1.76222 -2.08102,-1.74668 -4.49647,0.52252 -1.36926,1.28634 -2.48954,2.93535 -2.48954,3.66447 0,0.72913 -0.81,1.32569 -1.8,1.32569 -2.30387,0 -4.2,1.89613 -4.2,4.2 0,1.12259 -0.73944,1.8 -1.96482,1.8 -1.08065,0 -2.40566,0.82373 -2.94448,1.83052 -0.53881,1.00678 -4.22819,4.99654 -8.19861,8.86611 l -7.21895,7.0356 2.23152,3.13388 c 1.22734,1.72364 2.77886,3.13389 3.44783,3.13389 0.66896,0 2.01376,1.35 2.98844,3 1.00205,1.69634 2.61668,3 3.71561,3 1.23455,0 1.94346,0.68487 1.94346,1.87756 0,2.52583 2.33626,4.31437 4.53399,3.47102 1.45318,-0.55763 1.68322,-0.2872 1.22998,1.44598 -0.71074,2.71791 1.4793,4.58039 4.32421,3.67745 1.93245,-0.61333 2.11271,-0.40854 1.56416,1.77703 -0.43974,1.75206 -0.0432,2.99223 1.36383,4.2656 1.78944,1.61941 1.98383,1.63317 1.98383,0.14035 0,-0.91025 0.675,-1.65499 1.5,-1.65499 0.825,0 1.5,0.675 1.5,1.5 0,0.825 -0.45,1.5 -1,1.5 -0.55,0 -1,0.45 -1,1 0,2.09067 1.78802,0.75469 9.52346,-7.11576 z m -4.88398,1.42191 c -1.12618,-1.12619 -0.68589,-2.30615 0.86052,-2.30615 0.825,0 1.5,0.42344 1.5,0.94098 0,1.26098 -1.56159,2.1641 -2.36052,1.36517 z m -5.44781,-1.38115 c 0.19708,-0.59125 0.78583,-1.075 1.30833,-1.075 0.5225,0 1.11125,0.48375 1.30833,1.075 0.19709,0.59125 -0.39166,1.075 -1.30833,1.075 -0.91667,0 -1.50542,-0.48375 -1.30833,-1.075 z m -6.19167,-4.925 c 0,-1.28889 0.50641,-1.99786 1.25,-1.75 0.6875,0.22917 1.25,1.01667 1.25,1.75 0,0.73333 -0.5625,1.52083 -1.25,1.75 -0.74359,0.24786 -1.25,-0.46111 -1.25,-1.75 z m 6,0 c 0,-1.28889 0.50641,-1.99786 1.25,-1.75 0.6875,0.22917 1.25,1.01667 1.25,1.75 0,0.73333 -0.5625,1.52083 -1.25,1.75 -0.74359,0.24786 -1.25,-0.46111 -1.25,-1.75 z m 5.5,1 c -0.39915,-0.64585 -0.27574,-1.62426 0.27426,-2.17426 0.66667,-0.66667 1.24192,-0.60858 1.72574,0.17426 0.39915,0.64585 0.27574,1.62426 -0.27426,2.17426 -0.66667,0.66667 -1.24192,0.60858 -1.72574,-0.17426 z m 5,0 c -0.7292,-1.17987 0.21667,-3 1.55902,-3 0.51754,0 0.94098,0.9 0.94098,2 0,2.10908 -1.45488,2.69104 -2.5,1 z M 234.9467,763.7725 c -1.19516,-1.19516 -0.64571,-3.30615 0.86052,-3.30615 0.825,0 1.5,0.64844 1.5,1.44098 0,1.67065 -1.42728,2.79841 -2.36052,1.86517 z m 5.36052,-1.80615 c 0,-0.825 0.675,-1.5 1.5,-1.5 0.825,0 1.5,0.675 1.5,1.5 0,0.825 -0.675,1.5 -1.5,1.5 -0.825,0 -1.5,-0.675 -1.5,-1.5 z m 5.54271,0.5691 c -0.73955,-1.1966 1.14162,-2.38223 2.4736,-1.55902 1.11836,0.69118 0.38417,2.48992 -1.01631,2.48992 -0.48508,0 -1.14086,-0.41891 -1.45729,-0.9309 z m 5.45729,-0.5691 c 0,-0.825 0.675,-1.5 1.5,-1.5 0.825,0 1.5,0.675 1.5,1.5 0,0.825 -0.675,1.5 -1.5,1.5 -0.825,0 -1.5,-0.675 -1.5,-1.5 z m 5.21817,0.3455 c 0.51903,-1.5571 2.75625,-1.82979 2.83465,-0.3455 0.0291,0.55 -0.69777,1.15548 -1.61517,1.3455 -1.04271,0.21599 -1.49986,-0.15888 -1.21948,-1 z m -29.0278,-5.5955 c 0.18536,-0.9625 0.99969,-1.75 1.80963,-1.75 0.80994,0 1.62427,0.7875 1.80963,1.75 0.23646,1.22785 -0.30348,1.75 -1.80963,1.75 -1.50615,0 -2.04609,-0.52215 -1.80963,-1.75 z m 6.25578,0.66287 c -0.87268,-1.41202 1.0547,-3.3394 2.46672,-2.46672 1.58602,0.98021 1.32977,3.55385 -0.35385,3.55385 -0.79254,0 -1.74333,-0.48921 -2.11287,-1.08713 z m 6,0 c -0.87268,-1.41202 1.0547,-3.3394 2.46672,-2.46672 0.59792,0.36954 1.08713,1.32033 1.08713,2.11287 0,1.68362 -2.57364,1.93987 -3.55385,0.35385 z m 6,0 c -1.03052,-1.66742 1.28721,-3.57951 2.66672,-2.2 1.15392,1.15392 0.43172,3.28713 -1.11287,3.28713 -0.48508,0 -1.18431,-0.48921 -1.55385,-1.08713 z m 5.73053,-0.46569 c 0.45227,-2.17211 2.22702,-2.30502 2.63295,-0.19718 0.2108,1.0946 -0.27967,1.75 -1.30963,1.75 -0.96073,0 -1.51197,-0.64684 -1.32332,-1.55282 z m 5.26947,0.46569 c -1.03052,-1.66742 1.28721,-3.57951 2.66672,-2.2 1.15392,1.15392 0.43172,3.28713 -1.11287,3.28713 -0.48508,0 -1.18431,-0.48921 -1.55385,-1.08713 z m 6,0 c -0.85813,-1.38848 1.04396,-3.34604 2.42304,-2.49371 1.14846,0.70978 0.41309,3.58084 -0.91716,3.58084 -0.4587,0 -1.13634,-0.48921 -1.50588,-1.08713 z m 5.55385,-0.79043 c 0,-1.21995 0.63782,-2.12244 1.5,-2.12244 0.825,0 1.5,0.3949 1.5,0.87756 0,0.48265 -0.675,1.43775 -1.5,2.12244 -1.2532,1.04007 -1.5,0.89568 -1.5,-0.87756 z m -33.85471,-4.44738 c -0.90806,-1.09414 -0.83407,-1.68846 0.33055,-2.65501 1.22418,-1.01598 1.6192,-0.93596 2.14511,0.43454 0.89712,2.33785 -0.98055,4.02197 -2.47566,2.22047 z m -13.14529,-1.24838 c 0,-0.93124 0.68037,-1.44138 1.66713,-1.25 2.50877,0.48655 2.85325,2.82332 0.4162,2.82332 -1.22833,0 -2.08333,-0.64569 -2.08333,-1.57332 z m 6,0.23999 c 0,-1.88088 0.96233,-2.61836 2.59777,-1.99078 2.12706,0.81623 1.67607,3.32411 -0.59777,3.32411 -1.1,0 -2,-0.6 -2,-1.33333 z m 12.57003,0.44664 c -0.68055,-1.10115 1.86765,-3.3423 2.77198,-2.43797 0.36189,0.3619 0.65799,1.25799 0.65799,1.99133 0,1.4897 -2.57786,1.82538 -3.42997,0.44664 z m 5.97268,-0.0442 c -0.73955,-1.1966 1.14162,-2.38223 2.4736,-1.55902 1.11836,0.69117 0.38417,2.48991 -1.01631,2.48991 -0.48508,0 -1.14086,-0.41891 -1.45729,-0.9309 z m 5.45729,-0.56911 c 0,-0.825 0.675,-1.5 1.5,-1.5 0.825,0 1.5,0.675 1.5,1.5 0,0.825 -0.675,1.5 -1.5,1.5 -0.825,0 -1.5,-0.675 -1.5,-1.5 z m 5.54271,0.5691 c -0.73955,-1.1966 1.14162,-2.38223 2.4736,-1.55902 1.11836,0.69118 0.38417,2.48992 -1.01631,2.48992 -0.48508,0 -1.14086,-0.41891 -1.45729,-0.9309 z m 5.45729,-0.49578 c 0,-0.92763 0.855,-1.57332 2.08333,-1.57332 2.43705,0 2.09257,2.33677 -0.4162,2.82332 -0.98676,0.19138 -1.66713,-0.31876 -1.66713,-1.25 z m 6,-0.57332 c 0,-1.50615 0.52215,-2.04609 1.75,-1.80963 0.9625,0.18536 1.75,0.99969 1.75,1.80963 0,0.80994 -0.7875,1.62427 -1.75,1.80963 -1.22785,0.23646 -1.75,-0.30348 -1.75,-1.80963 z m 6.07414,1.04582 c -1.5785,-0.97557 -0.56923,-3.04582 1.48488,-3.04582 1.52001,0 2.00307,2.53458 0.64323,3.375 -0.43876,0.27117 -1.39641,0.12304 -2.12811,-0.32918 z m -52.90126,-5.70501 c 0.42145,-2.18841 3.32712,-2.49801 3.32712,-0.35451 0,0.81747 -0.82837,1.64584 -1.84081,1.84082 -1.3364,0.25736 -1.74367,-0.14991 -1.48631,-1.48631 z m 6,0 c 0.42145,-2.18841 3.32712,-2.49801 3.32712,-0.35451 0,0.81747 -0.82837,1.64584 -1.84081,1.84082 -1.3364,0.25736 -1.74367,-0.14991 -1.48631,-1.48631 z m 6.27327,0.57206 c -1.03052,-1.66742 1.28721,-3.57951 2.66672,-2.2 1.15392,1.15392 0.43172,3.28713 -1.11287,3.28713 -0.48508,0 -1.18431,-0.48921 -1.55385,-1.08713 z m 6,0 c -1.03052,-1.66742 1.28721,-3.57951 2.66672,-2.2 1.15392,1.15392 0.43172,3.28713 -1.11287,3.28713 -0.48508,0 -1.18431,-0.48921 -1.55385,-1.08713 z m 6,0 c -1.03052,-1.66742 1.28721,-3.57951 2.66672,-2.2 1.15392,1.15392 0.43172,3.28713 -1.11287,3.28713 -0.48508,0 -1.18431,-0.48921 -1.55385,-1.08713 z m 5.55385,-0.82954 c 0,-1.22833 0.64569,-2.08333 1.57332,-2.08333 0.93124,0 1.44138,0.68037 1.25,1.66713 -0.48655,2.50877 -2.82332,2.85325 -2.82332,0.4162 z m 5.44615,0.82954 c -1.03052,-1.66742 1.28721,-3.57951 2.66672,-2.2 1.15392,1.15392 0.43172,3.28713 -1.11287,3.28713 -0.48508,0 -1.18431,-0.48921 -1.55385,-1.08713 z m 6.03001,0.0486 c -1.00797,-1.63093 1.23102,-3.65425 2.56622,-2.31905 0.72318,0.72318 0.59733,1.41175 -0.41097,2.24856 -1.07422,0.89152 -1.63646,0.90991 -2.15525,0.0705 z m 6.18183,0.36323 c -0.36189,-0.36194 -0.65799,-1.25803 -0.65799,-1.99137 0,-1.4897 2.57786,-1.82538 3.42997,-0.44664 0.68055,1.10115 -1.86765,3.3423 -2.77198,2.43797 z m -41.46762,-7.0747 c 0.18536,-0.9625 0.99969,-1.75 1.80963,-1.75 0.80994,0 1.62427,0.7875 1.80963,1.75 0.23646,1.22785 -0.30348,1.75 -1.80963,1.75 -1.50615,0 -2.04609,-0.52215 -1.80963,-1.75 z m 6.25578,0.66287 c -0.87268,-1.41202 1.0547,-3.3394 2.46672,-2.46672 1.58602,0.98021 1.32977,3.55385 -0.35385,3.55385 -0.79254,0 -1.74333,-0.48921 -2.11287,-1.08713 z m 6.12388,0.20044 c -0.68055,-1.10115 1.86765,-3.3423 2.77198,-2.43797 0.36189,0.3619 0.65799,1.25799 0.65799,1.99133 0,1.4897 -2.57786,1.82538 -3.42997,0.44664 z m 5.88885,-0.17984 c -0.92034,-1.48915 0.14673,-2.29879 2.06137,-1.56407 0.88358,0.33906 1.32643,1.06965 0.98412,1.62354 -0.81058,1.31154 -2.21511,1.28411 -3.04549,-0.0595 z m 5.7178,-0.48629 c 0.45227,-2.17211 2.22702,-2.30502 2.63295,-0.19718 0.2108,1.0946 -0.27967,1.75 -1.30963,1.75 -0.96073,0 -1.51197,-0.64684 -1.32332,-1.55282 z m 5.51082,0.90699 c -1.3041,-1.3041 -0.68149,-2.35417 1.39583,-2.35417 1.16375,0 1.90861,0.52417 1.6875,1.1875 -0.48711,1.46134 -2.15686,2.09314 -3.08333,1.16667 z m 5.3125,-0.85417 c 0,-0.825 0.675,-1.5 1.5,-1.5 0.825,0 1.5,0.675 1.5,1.5 0,0.825 -0.675,1.5 -1.5,1.5 -0.825,0 -1.5,-0.675 -1.5,-1.5 z m -27.75,-4.21828 c -2.01735,-0.72364 -1.43273,-3.28172 0.75,-3.28172 1.1,0 2,0.64844 2,1.44098 0,1.73923 -1.05826,2.44758 -2.75,1.84074 z m 5.87198,-0.63474 c -1.21556,-1.46466 -0.52559,-2.64698 1.54469,-2.64698 1.4897,0 1.82538,2.57786 0.44664,3.42997 -0.48768,0.30141 -1.38378,-0.0509 -1.99133,-0.78299 z m 16.53601,0.67768 c -0.36189,-0.3619 -0.65799,-1.25799 -0.65799,-1.99133 0,-1.4897 2.57786,-1.82538 3.42997,-0.44664 0.68055,1.10115 -1.86765,3.3423 -2.77198,2.43797 z m -11.43982,-1.47916 c 0.51903,-1.5571 2.75625,-1.82979 2.83465,-0.3455 0.0291,0.55 -0.69777,1.15548 -1.61517,1.3455 -1.04271,0.21599 -1.49986,-0.15888 -1.21948,-1 z m 5.78183,-0.3455 c 0,-0.825 0.675,-1.5 1.5,-1.5 0.825,0 1.5,0.675 1.5,1.5 0,0.825 -0.675,1.5 -1.5,1.5 -0.825,0 -1.5,-0.675 -1.5,-1.5 z m -11.5,-4.5 c -0.83704,-1.35436 0.29243,-3 2.05902,-3 0.79254,0 1.44098,0.9 1.44098,2 0,2.07031 -2.41251,2.7596 -3.5,1 z m 6,0 c -0.81551,-1.31952 0.38021,-3.19207 1.5691,-2.45729 1.21461,0.75067 1.20672,3.45729 -0.0101,3.45729 -0.51754,0 -1.2191,-0.45 -1.55902,-1 z m 5.6545,-0.43765 c 0.19002,-0.9174 0.7955,-1.64422 1.3455,-1.61517 1.48429,0.0784 1.2116,2.31562 -0.3455,2.83465 -0.84112,0.28038 -1.21599,-0.17677 -1,-1.21948 z m -5.92533,-5.74985 c 0.61807,-1.85422 2.77083,-2.16176 2.77083,-0.39583 0,0.87083 -0.7125,1.58333 -1.58333,1.58333 -0.87084,0 -1.40521,-0.53437 -1.1875,-1.1875 z m 270.77083,61.12239 c -23.2251,-2.47449 -52.57334,-9.34429 -71,-16.61959 -40.81628,-16.11528 -78.27117,-40.95357 -106.79033,-70.81826 -33.45043,-35.0286 -55.09729,-75.49801 -68.10227,-127.3191 -5.68678,-22.66021 -7.52157,-39.01 -7.42652,-66.17794 0.10897,-31.1475 3.29107,-54.17446 11.39108,-82.43041 6.32647,-22.06919 18.89682,-51.3037 27.33319,-63.56802 l 3.69592,-5.37293 -48.00798,-48.06432 c -33.46133,-33.50059 -48.48408,-49.21167 -49.57924,-51.85089 -4.1534,-10.00931 5.29848,-19.53683 16.35351,-16.48439 3.74811,1.03491 53.01751,49.0192 124.13264,120.89486 20.625,20.84558 37.8375,37.89543 38.25,37.88857 0.4125,-0.007 0.75,-13.78915 0.75,-30.62731 v -30.61483 l -7.75,-7.9826 c -4.2625,-4.39042 -25.07103,-24.70125 -46.24118,-45.13516 -70.71185,-68.25271 -73.06563,-70.6572 -73.68464,-75.27229 -1.01282,-7.55116 4.24733,-13.38028 12.07424,-13.38028 2.73311,0 4.7661,1.07235 9.29966,4.90532 3.19106,2.69792 28.07522,27.22292 55.29813,54.5 27.22292,27.27707 49.86442,49.59468 50.31446,49.59468 0.45004,0 0.67674,-7.87558 0.50379,-17.50128 -0.17295,-9.62571 -0.0895,-17.4964 0.18554,-17.49043 0.275,0.006 51.96483,51.55078 114.86629,114.54404 l 114.36629,114.53319 -1.80161,2.20724 c -0.99088,1.21398 -5.03525,5.35724 -8.98749,9.20724 -3.95223,3.85 -47.29384,46.33578 -96.31468,94.41284 l -89.1288,87.41283 v 13.57323 13.57323 l 48.25,-48.00562 c 138.39188,-137.69095 167.48395,-166.52223 170,-168.47611 1.5125,-1.17456 2.75,-2.53402 2.75,-3.02102 0,-0.48701 -74.68807,-75.62483 -165.9735,-166.97294 C 297.12182,150.12849 305.28373,158.7657 308.23711,151.63562 c 3.0658,-7.4015 11.60186,-11.04192 18.80949,-8.02179 1.77531,0.74388 6.49135,4.50252 10.48009,8.35252 3.98875,3.85 14.68362,14.20182 23.7664,23.00404 9.08277,8.80222 28.66413,27.69563 43.51413,41.98536 14.85,14.28973 37.35,36.12198 50,48.51613 12.65,12.39414 38.975,37.79871 58.5,56.4546 19.525,18.65589 43.50108,41.70932 53.28017,51.22984 9.77909,9.52051 18.16674,17.31003 18.63923,17.31003 0.47248,0 6.96946,-6.1875 14.43774,-13.75 l 13.57867,-13.75 10.77249,10.7462 10.77248,10.74621 -13.73713,13.76347 -13.73712,13.76347 9.73728,9.73728 9.73727,9.73727 14.26147,-14.23601 14.26146,-14.23602 21.248,20.94631 c 11.68639,11.52047 29.79799,29.5321 40.24799,40.02584 10.45,10.49374 21.80859,21.65048 25.24131,24.79275 l 6.24131,5.71323 h 22.65847 22.65847 l -0.60228,-13.25 c -2.13285,-46.92206 -19.44179,-95.01574 -47.52464,-132.0494 l -6.67264,-8.7994 -21.14471,21.38765 -21.14471,21.38764 -23.35529,-23.11807 C 602.54264,290.12219 553.32321,242.51622 551.18724,242.04799 c -1.30901,-0.28695 -3.28002,-0.64771 -4.38002,-0.80169 -1.1,-0.15397 -8.075,-6.57995 -15.5,-14.27995 l -13.5,-14 15,-0.30806 c 15.65539,-0.32151 33.41689,0.99739 44.5,3.30441 3.575,0.74416 10.775,2.12192 16,3.06169 13.63624,2.45263 45.17608,11.64894 58.28344,16.99414 22.77606,9.28813 49.17124,23.87489 55.37875,30.60396 l 2.16219,2.34386 -20.8572,21.49113 -20.8572,21.49113 8.64999,9.00887 c 4.75749,4.95488 9.14447,9.57952 9.74884,10.27699 0.84898,0.97976 4.72495,-2.42811 17.04502,-14.9865 19.97264,-20.35898 27.6768,-27.75689 28.92038,-27.77076 1.55354,-0.0173 30.50578,29.69279 37.50733,38.48914 33.80887,42.47556 54.24218,97.54284 56.67952,152.75 l 0.6512,14.75 h 31.26208 c 17.19415,0 31.99053,0.27953 32.88086,0.62118 0.89032,0.34165 2.2678,1.87626 3.06105,3.41025 1.71346,3.31347 0.41176,8.40155 -2.55569,9.98968 -1.08202,0.57907 -14.69102,0.97889 -33.31975,0.97889 h -31.49066 l -0.70406,9 -0.70406,9 h -15.87101 -15.87102 v -9 -9 h -20.59429 -20.59428 l -34.14344,33.25 c -18.77888,18.2875 -52.7299,51.475 -75.4467,73.75 -22.7168,22.275 -54.44733,53.28065 -70.51228,68.90144 -16.06496,15.62079 -37.8079,36.86526 -48.31766,47.20992 l -19.10865,18.80849 4.60865,0.79007 c 2.53476,0.43455 17.43365,0.79008 33.10865,0.79008 25.25191,0 29.86762,-0.2547 40.5,-2.23484 6.6,-1.22916 13.56548,-2.68978 15.47885,-3.24583 2.64721,-0.7693 12.69479,-10.21574 42.0298,-39.51516 34.98428,-34.94183 38.85308,-38.50417 41.8166,-38.50417 3.93793,0 8.17475,3.79228 8.17475,7.31704 0,1.32437 -1.37047,4.15733 -3.04549,6.29546 -3.3445,4.26918 -37.7558,38.48086 -47.91547,47.6375 -3.50893,3.1625 -6.05853,5.75 -5.66579,5.75 0.39275,0 5.08194,-1.62457 10.42042,-3.61015 37.31679,-13.8795 76.15931,-44.70041 103.83308,-82.38985 13.67419,-18.62313 29.43015,-51.99653 37.88695,-80.25 l 2.91836,-9.75 h 16.28397 c 14.84237,0 16.28386,0.15493 16.28268,1.75 -0.006,7.86823 -13.27475,48.67029 -21.35762,65.67489 -8.23561,17.3259 -22.0524,39.4918 -31.52528,50.57511 -19.3474,22.63656 -35.85226,38.32638 -57.11581,54.29531 -35.64609,26.77023 -89.38372,46.91795 -137.85595,51.68601 -11.85956,1.16658 -46.01943,1.13883 -57.14405,-0.0464 z m 34.44931,-125.93489 c 25.87181,-25.575 71.20287,-70.5319 100.73568,-99.90421 29.53281,-29.37232 54.15956,-53.6907 54.7261,-54.04084 1.04638,-0.6467 -9.3695,-13.05495 -10.95874,-13.05495 -0.46718,0 -4.81008,4.00877 -9.65088,8.90838 -7.89538,7.99128 -72.14455,71.23397 -194.10681,191.06606 -23.21643,22.81094 -42.0811,41.86624 -41.92148,42.3451 0.15962,0.47886 4.10095,2.35713 8.75852,4.17392 l 8.4683,3.30326 18.45482,-18.14836 c 10.15016,-9.9816 39.62268,-39.07336 65.49449,-64.64836 z m -163.4719,-112.69854 -0.011,-112.19853 -4.94506,-5.30147 -4.94507,-5.30146 0.005,123 0.005,123 4.95093,-5.5 4.95093,-5.5 z m -39.49781,-19.55146 -0.68157,-132.25 -8.74923,-8.84345 -8.74922,-8.84346 -2.53072,4.34346 c -15.05278,25.83498 -25.09994,55.86655 -29.22102,87.34345 -7.81423,59.68531 3.7613,118.26323 32.90193,166.5 5.43307,8.99341 16.21076,24 17.23673,24 0.26107,0 0.16797,-59.5125 -0.2069,-132.25 z m 169.99665,17.77978 49.97625,-49.51803 -73.72625,-73.30369 -73.72625,-73.3037 v 12.87195 12.87195 l 60,60.10091 c 33,33.0555 60,60.41223 60,60.79273 0,0.75684 -17.69956,18.29518 -105.25,104.29134 l -14.75,14.48815 v 13.20828 13.20828 l 23.75,-23.09507 c 13.0625,-12.70229 46.23931,-45.37818 73.72625,-72.6131 z m -90.34531,21.72022 c 4.03569,-4.2625 20.84469,-21.37001 37.35334,-38.01668 16.50865,-16.64667 30.1436,-30.64281 30.2999,-31.10253 0.1563,-0.45973 -14.4687,-15.37213 -32.5,-33.13867 -18.0313,-17.76655 -34.92168,-34.73409 -37.53418,-37.70566 l -4.75,-5.40284 -0.25,33.80819 c -0.27048,36.57791 -0.34214,119.29992 -0.10334,119.30504 0.0807,0.002 3.44858,-3.48435 7.48428,-7.74685 z m 13.86906,-65.36501 v -19.11501 l 2.67313,1.7515 c 1.47022,0.96333 6.71608,4.94499 11.65747,8.84813 l 8.98434,7.09664 -10.89455,10.26687 c -5.992,5.64679 -11.23786,10.26688 -11.65747,10.26688 -0.41961,0 -0.76292,-8.60175 -0.76292,-19.11501 z m 307,265.61501 v -9.5 h 9.5 9.5 v 9.5 9.5 h -9.5 -9.5 z m -540.6183,-83.0307 c -4.15738,-1.82326 -8.15207,-6.72835 -8.95197,-10.99216 -1.89156,-10.08292 7.03274,-19.53463 17.02918,-18.03557 9.33476,1.39983 14.06976,7.16984 13.31845,16.22969 -0.5137,6.19443 -3.0154,9.54862 -9.27736,12.4387 -4.67503,2.15766 -7.80605,2.25051 -12.1183,0.35934 z m 415.84337,-0.42195 c -6.89591,-4.31298 -7.02481,-14.37157 -0.23557,-18.38208 4.29523,-2.53725 8.48247,-2.10887 12.24472,1.2527 2.87287,2.56691 3.26578,3.52666 3.26578,7.97727 0,4.09166 -0.48843,5.54774 -2.55375,7.61306 -3.52677,3.52677 -8.56792,4.13667 -12.72118,1.53905 z m 206.84751,-0.68221 c -1.13992,-1.44917 -2.07258,-3.94463 -2.07258,-5.54545 0,-3.65614 3.99334,-7.81969 7.5,-7.81969 3.50666,0 7.5,4.16355 7.5,7.81969 0,4.41428 -3.45283,8.18031 -7.5,8.18031 -2.43322,0 -3.92421,-0.72383 -5.42742,-2.63486 z M 688.92134,647.58072 c -7.07137,-7.0871 -12.68988,-13.36841 -12.48558,-13.95846 0.2043,-0.59006 6.19482,-6.95447 13.31226,-14.14314 l 12.9408,-13.0703 13.38781,13.37234 13.38781,13.37235 -13.18817,13.65642 c -7.2535,7.51103 -13.48286,13.65642 -13.84304,13.65642 -0.36018,0 -6.44053,-5.79853 -13.51189,-12.88563 z m 155.38588,-18.1519 v -9.03752 l 9.25,0.28752 9.25,0.28753 0.28893,8.75 0.28894,8.75 h -9.53894 -9.53893 z m 0,-45 v -9.03752 l 9.25,0.28752 9.25,0.28753 0.28893,8.75 0.28894,8.75 h -9.53894 -9.53893 z M 243.71643,414.96647 c -2.11518,-2.11518 -2.39654,-3.07698 -1.82834,-6.25 0.36935,-2.06257 1.48352,-5.56938 2.47594,-7.79292 0.99242,-2.22354 2.90033,-6.95443 4.23981,-10.51309 4.13748,-10.99227 16.44674,-33.66059 21.01153,-38.69411 2.55732,-2.81991 6.60679,-2.89135 10.05699,-0.17742 4.2796,3.36633 3.57152,7.17457 -3.54843,19.08439 -6.1273,10.24937 -15.15718,29.34763 -17.8044,37.65642 -1.57483,4.94289 -6.02545,9.18661 -9.63449,9.18661 -1.3578,0 -3.59368,-1.12495 -4.96861,-2.49988 z m 600.59079,-6.96259 v -9.53753 h 9.53753 9.53752 l -0.28752,9.25 -0.28753,9.25 -9.25,0.28753 -9.25,0.28752 z m -629.05588,-44.3817 c -3.29606,-2.66898 -3.08587,-7.77698 0.44498,-10.81409 3.17069,-2.72732 4.66758,-2.88091 8.54339,-0.87665 4.73484,2.44848 4.81319,8.67602 0.15417,12.25311 -2.34006,1.79664 -6.54902,1.53774 -9.14254,-0.56237 z M 844.30722,353.42882 V 343.3913 l 9.25,0.28752 9.25,0.28753 0.21543,9.75 0.21543,9.75 h -9.46543 -9.46543 z m -278.5,-12.74697 c -7.7,-7.57119 -28.08777,-27.60428 -45.30616,-44.51797 l -31.30617,-30.75216 0.30617,-4.12272 c 0.2296,-3.09177 0.97136,-4.61736 2.96629,-6.10083 5.69041,-4.2315 5.76268,-4.17331 54.10502,43.56882 40.07631,39.57874 44.76356,44.53565 44.75,47.3245 -0.0233,4.78529 -3.39354,8.38681 -7.83773,8.37552 -3.37606,-0.009 -4.82471,-1.13744 -17.67742,-13.77516 z m 226.98476,-36.10242 c -11.61882,-3.15264 -22.78545,-10.74773 -30.09166,-20.46713 -5.94649,-7.91058 -8.07114,-12.18124 -9.88258,-19.86447 -5.18516,-21.99285 3.08035,-44.59974 20.92986,-57.24499 9.00161,-6.37708 14.04177,-8.6082 22.96533,-10.16605 18.66986,-3.25932 38.67404,3.75282 51.04288,17.89226 9.12008,10.42563 13.55141,22.27527 13.55141,36.2373 0,24.15166 -13.91736,43.46286 -37.91381,52.60774 -8.01775,3.05551 -21.42265,3.49589 -30.60143,1.00534 z M 682.55607,216.3423 c 0.60388,-1.50052 16.01729,-26.60958 17.67061,-28.78612 l 1.83078,-2.41018 8.965,13.41018 c 4.93075,7.37559 9.49308,14.40456 10.13853,15.61993 l 1.17353,2.20977 -20.0148,0.29023 c -11.00814,0.15963 -19.90178,0.009 -19.76365,-0.33381 z m -152.60113,-24.12595 -2.4638,-2.25 -0.50496,-31.22574 c -0.48585,-30.0438 -0.42981,-31.32129 1.48062,-33.75 3.56259,-4.52911 10.58627,-2.95312 12.80111,2.87233 1.3943,3.6673 1.40299,59.05536 0.01,61.6588 -1.00521,1.87824 -5.88259,4.94461 -7.86494,4.94461 -0.54664,0 -2.1026,-1.0125 -3.4577,-2.25 z m -117.64804,-10.5 3.2e-4,-9.25 h 9 9 v 8.5 c 0,4.675 -0.1125,8.76205 -0.25,9.08233 -0.1375,0.32029 -4.18764,0.65779 -9.00032,0.75 l -8.75031,0.16767 z m 50.79567,9 c -0.11255,-0.4125 -0.22505,-4.68456 -0.25,-9.49347 l -0.0453,-8.74347 9.25,-0.007 9.24995,-0.006 v 9.5 9.5 h -9 c -4.95,0 -9.09209,-0.3375 -9.20465,-0.75 z m 125.20465,-8.75 v -9.5 h 9.36248 9.36248 l 0.69048,8.5098 c 0.37977,4.68039 0.41509,8.95539 0.0785,9.5 -0.33658,0.54461 -4.86042,0.9902 -10.05296,0.9902 h -9.44098 z m 41,0 v -9.5 h 9 9 v 9.5 9.5 h -9 -9 z"
       id="path1" />
  </g>
</svg>
